PathFileType	3	(X/Y/Z)	squats_1__view1_aligned.trc
DataRate	CameraRate	NumFrames	NumMarkers	Units	OrigDataRate	OrigDataStartFrame	OrigNumFrames
100.0	100.0	12	19	mm	100.0	343	1660
Frame#	Time	pelvis			neck			head			hip_left			hip_right			knee_left			knee_right			ankle_left			ankle_right			heel_left			heel_right			toe_left			toe_right			shoulder_left			shoulder_right			elbow_left			elbow_right			wrist_left			wrist_right			
		X1	Y1	Z1	X2	Y2	Z2	X3	Y3	Z3	X4	Y4	Z4	X5	Y5	Z5	X6	Y6	Z6	X7	Y7	Z7	X8	Y8	Z8	X9	Y9	Z9	X10	Y10	Z10	X11	Y11	Z11	X12	Y12	Z12	X13	Y13	Z13	X14	Y14	Z14	X15	Y15	Z15	X16	Y16	Z16	X17	Y17	Z17	X18	Y18	Z18	X19	Y19	Z19	
343	3.42000	103.195022	518.804391	165.937500	80.709968	966.844806	-127.380318	73.962755	1056.637623	-279.602311	17.339148	521.783404	170.102550	189.050776	515.825381	161.772575	-104.670423	454.591756	-237.196387	288.789157	422.620923	-246.392772	-42.897257	166.807072	37.843978	271.523740	117.433620	14.742878	-29.857553	135.501812	88.417064	269.464826	87.111769	68.101798	-85.311293	74.802894	-121.432945	263.708124	16.764669	-147.548173	-97.702015	941.153014	-68.841334	260.729072	931.010970	-69.558646	-263.112814	718.393129	-4.914642	374.171839	672.388382	-16.848612	-259.625105	668.984508	-254.518773	416.613075	610.744739	-255.518650
344	3.43000	104.816910	516.385063	164.810738	81.992198	964.330734	-127.885543	75.132716	1054.141484	-279.903982	18.974665	519.302832	169.040558	190.659014	513.467299	160.581056	-103.485061	454.673267	-238.365511	290.882854	422.837182	-247.940181	-41.285591	166.878358	36.317665	273.448740	117.601209	12.838763	-28.205618	135.541012	86.849765	271.357526	87.239058	66.164687	-84.016609	75.078134	-122.903724	265.562240	17.093282	-149.508214	-96.308982	938.659676	-69.423212	261.888482	928.488466	-70.149261	-261.370475	715.542191	-6.331146	375.323915	670.045934	-17.173601	-257.748172	666.913988	-256.098636	418.155052	608.876429	-255.889788
345	3.44000	106.438798	513.965736	163.683976	83.274429	961.816663	-128.390767	76.302677	1051.645346	-280.205653	20.610182	516.822259	167.978566	192.267253	511.109217	159.389538	-102.299698	454.754778	-239.534635	292.976551	423.053441	-249.487591	-39.673925	166.949643	34.791352	275.373739	117.768798	10.934647	-26.553683	135.580211	85.282466	273.250225	87.366347	64.227576	-82.721925	75.353373	-124.374503	267.416356	17.421895	-151.468254	-94.915949	936.166337	-70.005090	263.047891	925.965963	-70.739877	-259.628137	712.691253	-7.747651	376.475990	667.703486	-17.498590	-255.871240	664.843468	-257.678499	419.697028	607.008119	-256.260926
346	3.45000	108.060686	511.546408	162.557213	84.556660	959.302592	-128.895991	77.472638	1049.149207	-280.507324	22.245699	514.341686	166.916574	193.875492	508.751135	158.198019	-101.114336	454.836289	-240.703759	295.070248	423.269700	-251.035000	-38.062260	167.020929	33.265039	277.298739	117.936387	9.030531	-24.901748	135.619410	83.715167	275.142925	87.493637	62.290465	-81.427242	75.628613	-125.845281	269.270472	17.750508	-153.428294	-93.522915	933.672999	-70.586968	264.207300	923.443459	-71.330492	-257.885799	709.840315	-9.164155	377.628066	665.361038	-17.823579	-253.994307	662.772949	-259.258362	421.239005	605.139809	-256.632063
347	3.46000	107.192298	511.744628	164.242248	83.140169	959.637619	-126.965804	76.036324	1049.926318	-278.428350	21.399285	514.447305	168.618440	192.985127	509.041954	159.866221	-101.700769	455.227596	-239.536637	294.118361	423.756728	-249.761935	-38.488404	166.782081	33.884772	276.599443	117.796643	9.697124	-25.284076	135.275533	84.254419	274.475172	87.262971	62.906744	-82.315579	75.761068	-125.299789	268.563037	17.721475	-152.920529	-94.980921	933.626932	-68.800925	262.860606	923.782416	-69.492487	-259.465352	709.489555	-8.606730	376.941277	665.771280	-17.065686	-254.283218	663.021051	-258.784132	420.262884	605.976859	-256.053210
348	3.47000	106.323910	511.942847	165.927282	81.723677	959.972646	-125.035617	74.600009	1050.703428	-276.349377	20.552872	514.552924	170.320305	192.094763	509.332774	161.534422	-102.287201	455.618903	-238.369514	293.166473	424.243756	-248.488869	-38.914549	166.543233	34.504506	275.900148	117.656898	10.363716	-25.666404	134.931655	84.793670	273.807419	87.032305	63.523022	-83.203917	75.893523	-124.754298	267.855601	17.692442	-152.412764	-96.438927	933.580866	-67.014883	261.513912	924.121373	-67.654482	-261.044906	709.138795	-8.049305	376.254489	666.181521	-16.307792	-254.572129	663.269153	-258.309901	419.286762	606.813908	-255.474356
349	3.48000	105.455522	512.141066	167.612317	80.307186	960.307673	-123.105430	73.163694	1051.480538	-274.270404	19.706458	514.658543	172.022170	191.204398	509.623594	163.202624	-102.873633	456.010210	-237.202392	292.214586	424.730785	-247.215803	-39.340694	166.304385	35.124240	275.200852	117.517153	11.030309	-26.048733	134.587777	85.332922	273.139666	86.801639	64.139301	-84.092254	76.025978	-124.208806	267.148165	17.663408	-151.904998	-97.896933	933.534799	-65.228840	260.167218	924.460329	-65.816477	-262.624459	708.788035	-7.491879	375.567700	666.591763	-15.549899	-254.861040	663.517256	-257.835670	418.310641	607.650957	-254.895502
350	3.49000	104.587134	512.339286	169.297351	78.890694	960.642700	-121.175243	71.727379	1052.257648	-272.191431	18.860044	514.764162	173.724036	190.314034	509.914413	164.870825	-103.460066	456.401517	-236.035269	291.262699	425.217813	-245.942738	-39.766838	166.065538	35.743973	274.501557	117.377408	11.696901	-26.431061	134.243900	85.872174	272.471914	86.570973	64.755580	-84.980592	76.158433	-123.663314	266.440730	17.634375	-151.397233	-99.354939	933.488733	-63.442798	258.820524	924.799286	-63.978471	-264.204013	708.437275	-6.934454	374.880912	667.002005	-14.792005	-255.149951	663.765358	-257.361440	417.334520	608.488007	-254.316648
351	3.50000	103.718746	512.537505	170.982386	77.474203	960.977727	-119.245057	70.291065	1053.034758	-270.112457	18.013631	514.869780	175.425901	189.423669	510.205233	166.539027	-104.046498	456.792824	-234.868147	290.310811	425.704842	-244.669672	-40.192983	165.826690	36.363707	273.802261	117.237664	12.363494	-26.813390	133.900022	86.411425	271.804161	86.340307	65.371859	-85.868929	76.290887	-123.117822	265.733294	17.605342	-150.889468	-100.812945	933.442666	-61.656756	257.473830	925.138243	-62.140466	-265.783566	708.086515	-6.377029	374.194123	667.412247	-14.034112	-255.438862	664.013460	-256.887209	416.358399	609.325056	-253.737794
352	3.51000	102.850358	512.735724	172.667420	76.057711	961.312754	-117.314870	68.854750	1053.811868	-268.033484	17.167217	514.975399	177.127767	188.533305	510.496053	168.207228	-104.632930	457.184131	-233.701024	289.358924	426.191870	-243.396606	-40.619127	165.587842	36.983441	273.102966	117.097919	13.030086	-27.195718	133.556145	86.950677	271.136408	86.109641	65.988137	-86.757266	76.423342	-122.572330	265.025859	17.576308	-150.381703	-102.270951	933.396599	-59.870713	256.127136	925.477200	-60.302461	-267.363120	707.735755	-5.819603	373.507335	667.822488	-13.276218	-255.727773	664.261563	-256.412979	415.382277	610.162106	-253.158940
353	3.52000	101.981970	512.933944	174.352455	74.641220	961.647781	-115.384683	67.418435	1054.588978	-265.954511	16.320804	515.081018	178.829632	187.642940	510.786872	169.875429	-105.219363	457.575439	-232.533902	288.407037	426.678898	-242.123540	-41.045272	165.348994	37.603174	272.403670	116.958174	13.696679	-27.578046	133.212267	87.489929	270.468656	85.878975	66.604416	-87.645604	76.555797	-122.026838	264.318423	17.547275	-149.873937	-103.728957	933.350533	-58.084671	254.780442	925.816156	-58.464456	-268.942673	707.384995	-5.262178	372.820546	668.232730	-12.518325	-256.016684	664.509665	-255.938748	414.406156	610.999155	-252.580087
354	3.53000	101.113582	513.132163	176.037489	73.224729	961.982809	-113.454496	65.982121	1055.366088	-263.875538	15.474390	515.186637	180.531497	186.752576	511.077692	171.543631	-105.805795	457.966746	-231.366779	287.455150	427.165927	-240.850475	-41.471416	165.110146	38.222908	271.704375	116.818429	14.363271	-27.960375	132.868389	88.029180	269.800903	85.648309	67.220695	-88.533941	76.688252	-121.481347	263.610987	17.518241	-149.366172	-105.186963	933.304466	-56.298628	253.433748	926.155113	-56.626451	-270.522227	707.034235	-4.704753	372.133758	668.642972	-11.760431	-256.305595	664.757767	-255.464518	413.430035	611.836205	-252.001233
